<?xml version="1.0" encoding="utf-8"?>
<!-- Generator: Adobe Illustrator 16.0.0, SVG Export Plug-In . SVG Version: 6.00 Build 0)  -->
<!DOCTYPE svg PUBLIC "-//W3C//DTD SVG 1.1//EN" "http://www.w3.org/Graphics/SVG/1.1/DTD/svg11.dtd">
<svg version="1.1" xmlns="http://www.w3.org/2000/svg" xmlns:xlink="http://www.w3.org/1999/xlink" x="0px" y="0px" width="40px"
	 height="40px" viewBox="0 0 40 40" enable-background="new 0 0 40 40" xml:space="preserve">
<g id="Layer_1" display="none">
	<path display="inline" d="M33.385,31.438c2.638-3.082,4.241-7.073,4.241-11.438c0-4.365-1.604-8.356-4.242-11.438l4.451-3.74
		l0.319-2.092l-0.886-0.885l-2.09,0.319l-3.74,4.452C28.356,3.978,24.365,2.374,20,2.374S11.644,3.978,8.562,6.616l-3.74-4.451
		L2.731,1.845L1.845,2.73l0.32,2.091l4.451,3.74C3.978,11.643,2.374,15.635,2.374,20s1.604,8.356,4.241,11.438l-4.45,3.739
		l-0.32,2.092l0.886,0.886l2.091-0.319l3.74-4.45c3.082,2.637,7.073,4.241,11.438,4.241s8.356-1.604,11.438-4.242l3.74,4.451
		l2.09,0.319l0.886-0.886l-0.319-2.092L33.385,31.438z M20,35.626c-3.876,0-7.419-1.427-10.153-3.771l1.961-2.334l-1.328-1.33
		l-2.335,1.962C5.801,27.419,4.374,23.876,4.374,20s1.427-7.419,3.772-10.153l2.334,1.961l1.328-1.328L9.847,8.146
		C12.581,5.801,16.124,4.374,20,4.374s7.419,1.427,10.153,3.772l-1.961,2.333l1.328,1.329l2.334-1.961
		c2.345,2.734,3.771,6.277,3.771,10.153c0,3.875-1.427,7.418-3.771,10.152l-2.335-1.962l-1.328,1.33l1.961,2.333
		C27.419,34.199,23.876,35.626,20,35.626z"/>
	<circle display="inline" cx="20" cy="20" r="2"/>
</g>
<g id="Layer_2">
	<circle cx="20" cy="20" r="2"/>
	<path d="M33.76,27.61c-0.256,0-0.512-0.098-0.707-0.293c-0.391-0.391-0.391-1.024,0-1.414l1.71-1.709
		c2.313-2.313,2.313-6.075,0.001-8.387l-1.711-1.712c-0.391-0.391-0.391-1.024,0-1.415c0.391-0.39,1.023-0.39,1.414,0l1.711,1.712
		c3.092,3.092,3.092,8.123-0.001,11.215l-1.71,1.709C34.271,27.513,34.016,27.61,33.76,27.61z"/>
	<path d="M20,38.496c-2.031,0-4.061-0.772-5.607-2.318l-1.712-1.711c-0.391-0.391-0.391-1.023,0-1.414
		c0.391-0.391,1.024-0.391,1.415,0l1.712,1.711c2.312,2.311,6.075,2.312,8.387-0.001l1.71-1.71c0.391-0.391,1.023-0.391,1.414,0
		s0.391,1.023,0,1.414l-1.71,1.71C24.063,37.723,22.03,38.496,20,38.496z"/>
	<path d="M6.241,27.61c-0.256,0-0.512-0.098-0.707-0.293l-1.71-1.709c-3.092-3.093-3.092-8.124,0-11.216l1.709-1.711
		c0.391-0.391,1.024-0.39,1.415,0c0.391,0.391,0.391,1.023,0,1.415l-1.71,1.711c-2.313,2.313-2.313,6.076,0,8.388l1.71,1.709
		c0.391,0.39,0.391,1.023,0,1.414C6.753,27.513,6.497,27.61,6.241,27.61z"/>
	<path d="M26.61,7.241c-0.256,0-0.512-0.098-0.707-0.293l-1.709-1.71c-2.313-2.313-6.075-2.312-8.388,0l-1.711,1.71
		c-0.391,0.39-1.024,0.39-1.415,0c-0.39-0.391-0.39-1.024,0-1.415l1.711-1.71c3.092-3.093,8.125-3.092,11.216,0l1.709,1.71
		c0.391,0.391,0.391,1.024,0,1.415C27.122,7.143,26.866,7.241,26.61,7.241z"/>
</g>
</svg>
