<?xml version="1.0" encoding="utf-8"?>
<!-- Generator: Adobe Illustrator 16.0.0, SVG Export Plug-In . SVG Version: 6.00 Build 0)  -->
<!DOCTYPE svg PUBLIC "-//W3C//DTD SVG 1.1//EN" "http://www.w3.org/Graphics/SVG/1.1/DTD/svg11.dtd">
<svg version="1.1" id="Layer_1" xmlns="http://www.w3.org/2000/svg" xmlns:xlink="http://www.w3.org/1999/xlink" x="0px" y="0px"
	 width="135px" height="135px" viewBox="0 0 135 135" enable-background="new 0 0 135 135" xml:space="preserve">
<path fill="#231F20" d="M56.949,85.457l-4.855,14.633l2.351,2.791l-5.141,19.967c1.739,0.955,2.931,2.781,2.931,4.904h-4.193H46.73
	h-0.113h-3.99h-0.08h-0.033h-5.505c0-3.063,2.456-5.545,5.505-5.606v-0.012h0.077l0.12-15.172h-0.99
	c-6.085,0-6.663-5.04-6.663-6.609v-1.245c-2.852-2.853-2.836-4.456-2.836-11.022v-7.807c0-2.863,0.949-5.105,3.001-7.157
	c2.495-2.493,3.883-3.913,5.947-3.913c2.065,0,4.537,1.553,6.355,3.931S52.263,79.333,56.949,85.457z M84.67,64.739H69.273h-3.547
	H50.33v6.731c0,0,0,0,7.356,9.614c1.557,2.035,4.68,3.346,8.04,3.601v0.054h1.19h1.166h1.19v-0.054
	c3.36-0.255,6.483-1.565,8.039-3.601c7.357-9.614,7.357-9.614,7.357-9.614V64.739z M99.777,73.121
	c-2.496-2.493-3.883-3.913-5.947-3.913c-2.066,0-4.537,1.553-6.355,3.931s-4.738,6.194-9.424,12.318l4.855,14.633l-2.352,2.791
	l5.141,19.967c-1.738,0.955-2.93,2.781-2.93,4.904h4.193h1.311h0.113h3.99h0.08h0.033h5.504c0-3.063-2.455-5.545-5.504-5.606v-0.012
	h-0.078l-0.119-15.172h0.99c6.084,0,6.662-5.04,6.662-6.609v-1.245c2.852-2.853,2.836-4.456,2.836-11.022v-7.807
	C102.777,77.415,101.828,75.173,99.777,73.121z"/>
<path display="none" fill="#231F20" d="M118.709,46.645c-5.6,0-10.141,4.54-10.141,10.139c0,5.6,4.541,10.14,10.141,10.14
	s10.139-4.54,10.139-10.14C128.848,51.185,124.309,46.645,118.709,46.645z M112.973,58.75c-1.086,0-1.967-0.88-1.967-1.966
	c0-1.085,0.881-1.966,1.967-1.966s1.967,0.88,1.967,1.966C114.939,57.87,114.059,58.75,112.973,58.75z M118.709,64.486
	c-1.086,0-1.967-0.88-1.967-1.966s0.881-1.966,1.967-1.966s1.965,0.88,1.965,1.966S119.795,64.486,118.709,64.486z M118.709,53.014
	c-1.086,0-1.967-0.88-1.967-1.966s0.881-1.966,1.967-1.966s1.965,0.88,1.965,1.966S119.795,53.014,118.709,53.014z M124.443,58.75
	c-1.084,0-1.965-0.88-1.965-1.966c0-1.085,0.881-1.966,1.965-1.966c1.086,0,1.967,0.88,1.967,1.966
	C126.41,57.87,125.529,58.75,124.443,58.75z M132.395,29.791c0,2.462,0,9.32,0,9.32l-2.651,12.643
	c-0.001-0.002-0.002-0.003-0.003-0.005c-0.347-0.757-0.769-1.469-1.257-2.133c-0.037-0.051-0.075-0.102-0.113-0.152
	c-0.449-0.591-0.949-1.138-1.497-1.638c-0.079-0.073-0.157-0.146-0.238-0.217c-0.153-0.132-0.309-0.259-0.468-0.383
	c-0.116-0.091-0.235-0.178-0.354-0.265c-0.148-0.107-0.294-0.216-0.446-0.316c-0.253-0.167-0.513-0.325-0.778-0.474
	c-0.123-0.068-0.25-0.129-0.376-0.193c-0.19-0.098-0.384-0.192-0.581-0.28c-0.127-0.057-0.254-0.112-0.384-0.164
	c-0.239-0.098-0.483-0.186-0.73-0.268c-0.085-0.028-0.167-0.061-0.253-0.087c-0.331-0.102-0.669-0.187-1.011-0.26
	c-0.101-0.021-0.203-0.038-0.305-0.057c-0.266-0.05-0.535-0.091-0.808-0.124c-0.106-0.013-0.213-0.026-0.321-0.036
	c-0.366-0.033-0.735-0.056-1.11-0.056c-0.376,0-0.747,0.023-1.114,0.057c-0.109,0.01-0.217,0.024-0.325,0.037
	c-0.27,0.032-0.536,0.073-0.801,0.123c-0.105,0.02-0.212,0.038-0.316,0.061c-0.348,0.075-0.691,0.161-1.027,0.265
	c-0.049,0.015-0.095,0.034-0.143,0.05c-0.289,0.093-0.572,0.198-0.852,0.313c-0.116,0.047-0.229,0.098-0.344,0.149
	c-0.215,0.096-0.427,0.198-0.635,0.307c-0.112,0.058-0.225,0.113-0.334,0.175c-0.287,0.16-0.568,0.328-0.84,0.51
	c-0.097,0.065-0.188,0.137-0.283,0.205c-0.184,0.131-0.365,0.264-0.541,0.405c-0.123,0.098-0.241,0.199-0.359,0.301
	c-0.145,0.124-0.284,0.252-0.422,0.383c-0.116,0.11-0.232,0.218-0.345,0.332c-0.185,0.189-0.361,0.386-0.533,0.587
	c-0.136,0.158-0.265,0.322-0.392,0.488c-0.104,0.135-0.208,0.269-0.306,0.408c-0.105,0.149-0.207,0.301-0.306,0.455
	c-0.086,0.134-0.168,0.271-0.248,0.409c-0.094,0.159-0.188,0.316-0.274,0.479c-0.123,0.231-0.235,0.469-0.343,0.709
	c-0.015,0.033-0.032,0.064-0.047,0.098l-2.559-12.836V14.487c0,0,10.139,0,12.816,0c2.68,0,3.758,0.728,4.852,1.821
	c0.723,0.723,5.131,5.814,7.371,8.054C132.299,26.602,132.395,27.329,132.395,29.791z"/>
<path display="none" fill="#231F20" d="M16.291,46.645c-5.6,0-10.139,4.54-10.139,10.139c0,5.6,4.539,10.14,10.139,10.14
	s10.14-4.54,10.14-10.14C26.431,51.185,21.891,46.645,16.291,46.645z M10.556,58.75c-1.086,0-1.967-0.88-1.967-1.966
	c0-1.085,0.881-1.966,1.967-1.966c1.085,0,1.966,0.88,1.966,1.966C12.521,57.87,11.641,58.75,10.556,58.75z M16.291,64.486
	c-1.086,0-1.966-0.88-1.966-1.966s0.88-1.966,1.966-1.966s1.967,0.88,1.967,1.966S17.377,64.486,16.291,64.486z M16.291,53.014
	c-1.086,0-1.966-0.88-1.966-1.966s0.88-1.966,1.966-1.966s1.967,0.88,1.967,1.966S17.377,53.014,16.291,53.014z M22.027,58.75
	c-1.086,0-1.967-0.88-1.967-1.966c0-1.085,0.881-1.966,1.967-1.966s1.966,0.88,1.966,1.966C23.993,57.87,23.113,58.75,22.027,58.75z
	 M29.978,14.487v24.624l-2.559,12.837c-0.002-0.006-0.006-0.012-0.008-0.018c-0.118-0.269-0.246-0.534-0.383-0.792
	c-0.085-0.161-0.178-0.316-0.27-0.473c-0.083-0.14-0.166-0.279-0.253-0.416c-0.099-0.153-0.198-0.303-0.303-0.451
	c-0.101-0.142-0.205-0.278-0.312-0.416c-0.12-0.155-0.239-0.311-0.366-0.459c-0.179-0.21-0.364-0.415-0.557-0.612
	c-0.109-0.112-0.225-0.218-0.339-0.326c-0.14-0.133-0.281-0.263-0.428-0.389c-0.116-0.101-0.233-0.2-0.354-0.296
	c-0.18-0.144-0.364-0.28-0.552-0.413c-0.093-0.065-0.181-0.135-0.274-0.198c-0.272-0.183-0.555-0.352-0.843-0.513
	c-0.107-0.06-0.218-0.115-0.328-0.171c-0.211-0.109-0.425-0.213-0.643-0.31c-0.112-0.05-0.224-0.1-0.338-0.147
	c-0.282-0.116-0.569-0.221-0.862-0.316c-0.044-0.015-0.087-0.033-0.132-0.046c-0.337-0.104-0.682-0.19-1.029-0.265
	c-0.104-0.022-0.21-0.041-0.315-0.061c-0.265-0.049-0.532-0.09-0.802-0.123c-0.108-0.013-0.216-0.027-0.325-0.037
	c-0.367-0.034-0.737-0.057-1.114-0.057c-0.375,0-0.744,0.023-1.11,0.056c-0.107,0.01-0.215,0.023-0.321,0.036
	c-0.272,0.032-0.541,0.074-0.807,0.124c-0.103,0.019-0.205,0.036-0.306,0.058c-0.342,0.073-0.679,0.158-1.01,0.26
	c-0.087,0.027-0.171,0.06-0.257,0.089c-0.245,0.082-0.488,0.169-0.727,0.266c-0.13,0.053-0.259,0.108-0.387,0.166
	c-0.195,0.087-0.387,0.181-0.577,0.278c-0.126,0.064-0.254,0.126-0.378,0.195c-0.266,0.148-0.525,0.306-0.777,0.473
	c-0.153,0.101-0.3,0.21-0.448,0.317c-0.119,0.086-0.237,0.173-0.353,0.264c-0.159,0.125-0.315,0.252-0.469,0.384
	c-0.081,0.071-0.158,0.145-0.238,0.217c-0.548,0.5-1.048,1.047-1.497,1.639c-0.038,0.05-0.076,0.1-0.113,0.151
	c-0.489,0.665-0.912,1.379-1.26,2.138L2.605,39.111c0,0,0-6.857,0-9.32s0.095-3.189,2.334-5.428c2.239-2.24,6.647-7.331,7.371-8.054
	c1.093-1.093,2.172-1.821,4.851-1.821S29.978,14.487,29.978,14.487z"/>
<path display="none" fill="#231F20" d="M77.75,23.52v12.125c0,3.86-3.141,7-7,7h-6.5c-3.859,0-7-3.14-7-7V23.52c0-1.103,0.897-2,2-2
	h16.5C76.853,21.52,77.75,22.417,77.75,23.52z M97.158,17.139c0,2.652,0,11.63,0,14.465c0,5.331-6.6,13.961-6.6,13.961l-10.98,5.374
	l-2.012,5.964H57.434l-2.013-5.964l-10.98-5.374c0,0-6.6-8.63-6.6-13.961c0-2.408,0-14.465,0-14.465c0-2.652,0.685-4.243,2.03-5.588
	c2.224-2.223,14.375-3.959,25.855-4.267c0,0,1.179-0.043,1.773-0.035c0.595-0.008,1.773,0.035,1.773,0.035
	c11.48,0.308,23.633,2.043,25.855,4.267C96.474,12.896,97.158,14.487,97.158,17.139z M79.75,23.52c0-2.206-1.794-4-4-4h-16.5
	c-2.205,0-4,1.794-4,4v12.125c0,4.962,4.038,9,9,9h6.5c4.963,0,9-4.038,9-9V23.52z"/>
</svg>
